<svg xmlns="http://www.w3.org/2000/svg" width="256" height="256"><g transform="translate(1.964 1.964) scale(2.8008)" stroke-width="0" stroke-miterlimit="10" fill="none"><circle cx="43.689" cy="47.329" r="34.479" fill="#fff"/><path d="M86.37 51.863c-1.428-1.974-2.09-4.384-2.087-6.82V45C84.283 23.305 66.696 5.717 45 5.717c-4.746 0-9.294.845-13.505 2.388-2.278.835-4.774.996-7.11.338a19.237 19.237 0 00-6.55-.669C8.244 8.434.523 16.294.026 25.895A19.103 19.103 0 003.63 38.138c1.428 1.974 2.09 4.384 2.087 6.82v.043c0 21.695 17.588 39.283 39.283 39.283 4.746 0 9.294-.845 13.505-2.388 2.278-.835 4.774-.996 7.11-.338 2.063.581 4.267.826 6.55.669 9.591-.66 17.312-8.52 17.809-18.12a19.102 19.102 0 00-3.604-12.244zM46.438 37.957c7.921 1.884 19.89 4.73 19.89 17.915 0 6.495-3.199 11.45-9.007 13.951-4.145 1.785-8.836 2.026-12.878 2.026-12.422 0-20.267-9.659-20.595-10.07a5.908 5.908 0 019.239-7.368c.018.022 4.71 5.41 11.356 5.621 8.003.254 9.831-2.127 10.067-4.16.289-2.482-1.919-4.305-10.808-6.418-7.534-1.792-18.92-4.499-18.92-16.642 0-3.781 1.538-16.119 21.328-16.119 12.496 0 19.872 9.839 20.18 10.257a5.908 5.908 0 01-9.494 7.036c-.139-.179-4.361-4.876-10.686-5.477-4.786-.455-9.511 1.271-9.511 3.821.001 2.702 1.358 3.61 9.839 5.627z" fill="#00aaf2"/></g></svg>