<svg xmlns="http://www.w3.org/2000/svg" width="256" height="256"><g transform="translate(1.964 1.964) scale(2.8008)" stroke-width="0" stroke-miterlimit="10" fill="none"><linearGradient id="SVGID_1" gradientUnits="userSpaceOnUse" x1="58.19" y1="75.759" x2="35.69" y2="23.289"><stop offset="0%" stop-color="#37aee2"/><stop offset="100%" stop-color="#1e96c8"/></linearGradient><circle cx="45" cy="45" r="45" fill="url(#SVGID_1)"/><path d="M36.75 65.625c-1.458 0-1.21-.55-1.713-1.939L30.75 49.578 63.75 30" fill="#c8daea"/><path d="M36.75 65.625c1.125 0 1.622-.514 2.25-1.125l6-5.834-7.484-4.513" fill="#a9c9dd"/><path d="M37.515 54.154L55.65 67.552c2.07 1.142 3.563.551 4.079-1.921l7.382-34.786c.756-3.03-1.155-4.405-3.135-3.506L20.629 44.053c-2.959 1.187-2.941 2.838-.539 3.573l11.124 3.472 25.752-16.247c1.216-.737 2.332-.341 1.416.472L37.515 54.154z" fill="#fcfdff"/></g></svg>